<svg id="Layer_1" enable-background="new 0 0 64 64" height="512" viewBox="0 0 64 64" width="512" xmlns="http://www.w3.org/2000/svg"><path d="m59 20h-54c-1.1 0-2 .9-2 2v37h58v-37c0-1.1-.9-2-2-2z" fill="#d6b7a3"/><circle cx="21" cy="18" fill="#2f89f4" r="9"/><circle cx="43" cy="18" fill="#2f89f4" r="9"/><circle cx="32" cy="15" fill="#2f89f4" r="12"/><path d="m30 57h-27v2c0 1.1.9 2 2 2h25c1.1 0 2-.9 2-2s-.9-2-2-2z" fill="#8c7667"/><path d="m34 57c-1.1 0-2 .9-2 2s.9 2 2 2h25c1.1 0 2-.9 2-2v-2z" fill="#8c7667"/><g fill="#ab8f7e"><path d="m36 41h21v2h-21z"/><path d="m36 46h21v2h-21z"/><path d="m36 51h21v2h-21z"/><path d="m7 41h21v2h-21z"/><path d="m7 46h21v2h-21z"/><path d="m7 51h21v2h-21z"/></g><path d="m43 9h-22c-5 0-9 4-9 9s4 9 9 9h22c5 0 9-4 9-9s-4-9-9-9z" fill="#2f89f4"/><path d="m57 38h-19c-1.7 0-3-1.3-3-3v-10.4l3.3-3.3 1.4 1.4-2.7 2.7v9.6c0 .6.4 1 1 1h19z" fill="#ab8f7e"/><path d="m31 13h2v40h-2z" fill="#ab8f7e"/><path d="m39 31h18v2h-18z" fill="#ab8f7e"/><path d="m7 31h18v2h-18z" fill="#ab8f7e"/><path d="m43 15h2c0-2.1-.5-4.1-1.5-6h-2.3c1.2 1.8 1.8 3.9 1.8 6z" fill="#2366b5"/><path d="m19 15h2c0-2.1.6-4.2 1.8-6h-2.3c-1 1.9-1.5 3.9-1.5 6z" fill="#2366b5"/><path d="m26 38h-19v-2h19c.6 0 1-.4 1-1v-9.6l-2.7-2.7 1.4-1.4 3.3 3.3v10.4c0 1.7-1.3 3-3 3z" fill="#ab8f7e"/><circle cx="24" cy="21" fill="#ffa500" r="2"/><circle cx="40" cy="21" fill="#ffa500" r="2"/><circle cx="32" cy="12" fill="#ffa500" r="2"/></svg>